Coordinates
version=1
nRows=17
nColumns=38
inDegrees=yes

Units are S.I. units (second, meters, Newtons, ...)
Angles are in degrees.

endheader
time	pelvis_tilt	pelvis_list	pelvis_rotation	pelvis_tx	pelvis_ty	pelvis_tz	hip_flexion_r	hip_adduction_r	hip_rotation_r	knee_angle_r	ankle_angle_r	subtalar_angle_r	mtp_angle_r	hip_flexion_l	hip_adduction_l	hip_rotation_l	knee_angle_l	ankle_angle_l	subtalar_angle_l	mtp_angle_l	lumbar_extension	lumbar_bending	lumbar_rotation	arm_flex_r	arm_add_r	arm_rot_r	elbow_flex_r	pro_sup_r	wrist_flex_r	wrist_dev_r	arm_flex_l	arm_add_l	arm_rot_l	elbow_flex_l	pro_sup_l	wrist_flex_l	wrist_dev_l
      5.90000000	     -9.28850766	     -0.89761279	     -2.62382772	     -0.13897819	      0.83610747	      0.01605148	     11.97905860	      1.16745348	     -0.76926384	    -10.74546419	      5.15467218	      0.00000000	      0.00000000	     11.86555515	     -1.97475862	     -0.50371534	    -10.10303608	      5.34358324	      0.00000000	      0.00000000	     -2.16028573	      0.83016453	      0.01686492	      0.00000000	      0.00000000	      0.00000000	    304.82820897	    113.68519230	      0.00000000	      0.00000000	      0.00000000	      0.00000000	      0.00000000	    304.82820897	      8.45957575	      0.00000000	      0.00000000
      5.91000000	     -9.24558955	     -0.90960829	     -2.60622144	     -0.13997450	      0.83613208	      0.01605956	     11.94037893	      1.17515132	     -0.79892928	    -10.71620590	      5.13899589	      0.00000000	      0.00000000	     11.84150644	     -1.98627822	     -0.49508774	    -10.09251517	      5.34984802	      0.00000000	      0.00000000	     -2.15353984	      0.83446731	     -0.00122179	      0.00000000	      0.00000000	      0.00000000	    305.09520848	    113.67430443	      0.00000000	      0.00000000	      0.00000000	      0.00000000	      0.00000000	    305.09520848	      8.33926176	      0.00000000	      0.00000000
      5.92000000	     -9.20364655	     -0.92012417	     -2.58704970	     -0.14095026	      0.83614716	      0.01605819	     11.90287919	      1.17942136	     -0.82909827	    -10.68586264	      5.11809387	      0.00000000	      0.00000000	     11.81966011	     -1.99675788	     -0.49223781	    -10.08156575	      5.34935960	      0.00000000	      0.00000000	     -2.14519980	      0.83719348	     -0.01740152	      0.00000000	      0.00000000	      0.00000000	    305.36053747	    113.66339819	      0.00000000	      0.00000000	      0.00000000	      0.00000000	      0.00000000	    305.36053747	      8.21972436	      0.00000000	      0.00000000
      5.93000000	     -9.16375494	     -0.92835768	     -2.56790724	     -0.14189905	      0.83616955	      0.01604976	     11.86951078	      1.18100752	     -0.85849419	    -10.65605841	      5.09073365	      0.00000000	      0.00000000	     11.80154557	     -2.00647427	     -0.49551648	    -10.07135726	      5.34035902	      0.00000000	      0.00000000	     -2.13345795	      0.83819587	     -0.03003009	      0.00000000	      0.00000000	      0.00000000	    305.62419072	    113.65247360	      0.00000000	      0.00000000	      0.00000000	      0.00000000	      0.00000000	    305.62419072	      8.10096585	      0.00000000	      0.00000000
      5.94000000	     -9.12789784	     -0.93396477	     -2.54957654	     -0.14284200	      0.83620766	      0.01604093	     11.84227628	      1.18104276	     -0.88719005	    -10.62784674	      5.05684230	      0.00000000	      0.00000000	     11.78800690	     -2.01545010	     -0.50438316	    -10.06225384	      5.32291230	      0.00000000	      0.00000000	     -2.11670968	      0.83814389	     -0.03822317	      0.00000000	      0.00000000	      0.00000000	    305.88616301	    113.64153064	      0.00000000	      0.00000000	      0.00000000	      0.00000000	      0.00000000	    305.88616301	      7.98298847	      0.00000000	      0.00000000
      5.95000000	     -9.09737438	     -0.93748950	     -2.53172444	     -0.14379720	      0.83625932	      0.01603651	     11.82190492	      1.18008014	     -0.91620581	    -10.60152753	      5.01781107	      0.00000000	      0.00000000	     11.77971431	     -2.02330008	     -0.51761136	    -10.05345124	      5.29897473	      0.00000000	      0.00000000	     -2.09419583	      0.83820681	     -0.04209302	      0.00000000	      0.00000000	      0.00000000	    306.14644914	    113.63056933	      0.00000000	      0.00000000	      0.00000000	      0.00000000	      0.00000000	    306.14644914	      7.86579452	      0.00000000	      0.00000000
      5.96000000	     -9.07171843	     -0.93992369	     -2.51282081	     -0.14475677	      0.83631350	      0.01603473	     11.80799774	      1.17789821	     -0.94684213	    -10.57653610	      4.97638884	      0.00000000	      0.00000000	     11.77696117	     -2.02960005	     -0.53347091	    -10.04332740	      5.27184748	      0.00000000	      0.00000000	     -2.06626236	      0.83971264	     -0.04267311	      0.00000000	      0.00000000	      0.00000000	    306.40504388	    113.61958966	      0.00000000	      0.00000000	      0.00000000	      0.00000000	      0.00000000	    306.40504388	      7.74938625	      0.00000000	      0.00000000
      5.97000000	     -9.04950233	     -0.94175583	     -2.49053270	     -0.14570676	      0.83635594	      0.01602595	     11.79900346	      1.17398291	     -0.98005104	    -10.55185181	      4.93612250	      0.00000000	      0.00000000	     11.77867997	     -2.03426243	     -0.54994713	    -10.03049086	      5.24520319	      0.00000000	      0.00000000	     -2.03417810	      0.84386246	     -0.04153468	      0.00000000	      0.00000000	      0.00000000	    306.66194204	    113.60859163	      0.00000000	      0.00000000	      0.00000000	      0.00000000	      0.00000000	    306.66194204	      7.63376593	      0.00000000	      0.00000000
      5.98000000	     -9.02906849	     -0.94285960	     -2.46284328	     -0.14664160	      0.83638230	      0.01599945	     11.79254406	      1.16799637	     -1.01607811	    -10.52665128	      4.90048252	      0.00000000	      0.00000000	     11.78234199	     -2.03740284	     -0.56503015	    -10.01430729	      5.22203939	      0.00000000	      0.00000000	     -1.99971273	      0.85152523	     -0.04029623	      0.00000000	      0.00000000	      0.00000000	    306.91713840	    113.59757525	      0.00000000	      0.00000000	      0.00000000	      0.00000000	      0.00000000	    306.91713840	      7.51893584	      0.00000000	      0.00000000
      5.99000000	     -9.00852884	     -0.94333607	     -2.42933002	     -0.14755616	      0.83639936	      0.01595195	     11.78602267	      1.15986565	     -1.05443286	    -10.50096462	      4.87196436	      0.00000000	      0.00000000	     11.78497634	     -2.03891148	     -0.57706706	     -9.99450717	      5.20395001	      0.00000000	      0.00000000	     -1.96463661	      0.86305334	     -0.04022914	      0.00000000	      0.00000000	      0.00000000	    307.17062777	    113.58654050	      0.00000000	      0.00000000	      0.00000000	      0.00000000	      0.00000000	    307.17062777	      7.40489824	      0.00000000	      0.00000000
      6.00000000	     -8.98597379	     -0.94376392	     -2.39151072	     -0.14844248	      0.83641248	      0.01588843	     11.77724728	      1.14979965	     -1.09402955	    -10.47600957	      4.85150575	      0.00000000	      0.00000000	     11.78395077	     -2.03836873	     -0.58511755	     -9.97059682	      5.19094785	      0.00000000	      0.00000000	     -1.93032562	      0.87810403	     -0.04200846	      0.00000000	      0.00000000	      0.00000000	    307.42240493	    113.57548739	      0.00000000	      0.00000000	      0.00000000	      0.00000000	      0.00000000	    307.42240493	      7.29165540	      0.00000000	      0.00000000
      6.01000000	     -8.96010027	     -0.94429008	     -2.35193239	     -0.14930245	      0.83642681	      0.01581327	     11.76496992	      1.13833929	     -1.13339322	    -10.45373263	      4.83842999	      0.00000000	      0.00000000	     11.77686108	     -2.03536085	     -0.58912825	     -9.94172968	      5.18175834	      0.00000000	      0.00000000	     -1.89759754	      0.89556487	     -0.04557960	      0.00000000	      0.00000000	      0.00000000	    307.67246469	    113.56441593	      0.00000000	      0.00000000	      0.00000000	      0.00000000	      0.00000000	    307.67246469	      7.17920958	      0.00000000	      0.00000000
      6.02000000	     -8.93039985	     -0.94416362	     -2.31279053	     -0.15014750	      0.83645415	      0.01572641	     11.74899789	      1.12602612	     -1.17096263	    -10.43571803	      4.83085792	      0.00000000	      0.00000000	     11.76152921	     -2.02954124	     -0.58976131	     -9.90690584	      5.17432173	      0.00000000	      0.00000000	     -1.86677625	      0.91374782	     -0.05017887	      0.00000000	      0.00000000	      0.00000000	    307.92080185	    113.55332611	      0.00000000	      0.00000000	      0.00000000	      0.00000000	      0.00000000	    307.92080185	      7.06756305	      0.00000000	      0.00000000
      6.03000000	     -8.89664073	     -0.94237476	     -2.27505716	     -0.15097864	      0.83650180	      0.01563223	     11.72977187	      1.11291471	     -1.20545222	    -10.42228896	      4.82632570	      0.00000000	      0.00000000	     11.73680720	     -2.02039616	     -0.58796449	     -9.86527370	      5.16630701	      0.00000000	      0.00000000	     -1.83792821	      0.93094100	     -0.05457574	      0.00000000	      0.00000000	      0.00000000	    308.16741120	    113.54221793	      0.00000000	      0.00000000	      0.00000000	      0.00000000	      0.00000000	    308.16741120	      6.95671807	      0.00000000	      0.00000000
      6.04000000	     -8.85872994	     -0.93823190	     -2.23841108	     -0.15178697	      0.83656188	      0.01554015	     11.70764117	      1.09846209	     -1.23618966	    -10.41237389	      4.82236151	      0.00000000	      0.00000000	     11.70319419	     -2.00764567	     -0.58454628	     -9.81671348	      5.15556505	      0.00000000	      0.00000000	     -1.81102525	      0.94611873	     -0.05750034	      0.00000000	      0.00000000	      0.00000000	    308.41228756	    113.53109139	      0.00000000	      0.00000000	      0.00000000	      0.00000000	      0.00000000	    308.41228756	      6.84667691	      0.00000000	      0.00000000
      6.05000000	     -8.81722680	     -0.93163474	     -2.20172631	     -0.15256909	      0.83661790	      0.01545432	     11.68234319	      1.08196754	     -1.26343050	    -10.40397053	      4.81688856	      0.00000000	      0.00000000	     11.66251618	     -1.99209080	     -0.57993338	     -9.76248542	      5.14052228	      0.00000000	      0.00000000	     -1.78580243	      0.95942137	     -0.05806055	      0.00000000	      0.00000000	      0.00000000	    308.65542573	    113.51994649	      0.00000000	      0.00000000	      0.00000000	      0.00000000	      0.00000000	    308.65542573	      6.73744183	      0.00000000	      0.00000000
      6.06000000	     -8.77337327	     -0.92354143	     -2.16381671	     -0.15332477	      0.83665505	      0.01537331	     11.65324795	      1.06333365	     -1.28851054	    -10.39480026	      4.80842846	      0.00000000	      0.00000000	     11.61723565	     -1.97573151	     -0.57410280	     -9.70529916	      5.12050232	      0.00000000	      0.00000000	     -1.76148973	      0.97216646	     -0.05593100	      0.00000000	      0.00000000	      0.00000000	    308.89682050	    113.50878324	      0.00000000	      0.00000000	      0.00000000	      0.00000000	      0.00000000	    308.89682050	      6.62901509	      0.00000000	      0.00000000
